# xmcd CD database file
#
# Track frame offsets:
#	150
#	13817
#	27204
#	39081
#	51209
#	64206
#	76188
#	88629
#	110585
#	124394
#	135467
#	149884
#	162862
#	175655
#	189020
#
# Disc length: 2831 seconds
#
# Revision: 0
# Processed by: cddbd v1.5.2PL0 Copyright (c) Steve Scherf et al.
# Submitted via: CDex 1.51
#
DISCID=c40b0d0f
DTITLE=Various Artist - Piano Blues - 20th Century Blues Masters
DYEAR=2013
DGENRE=Blues
TTITLE0=44 Blues (Roosevelt Sykes)
TTITLE1=Walking the Blues (Champion Jack Dupree)
TTITLE2=All States Boogie (Ivory Joe Hunter)
TTITLE3=Boogie Woogie (Professor Longhair)
TTITLE4=Way Down Boogie (Harold Burrage)
TTITLE5=Wynonie's Boogie (Wynonie Harris)
TTITLE6=Roomin' House Boogie (Amos Milburn)
TTITLE7=I'm the Fixer (Willie Mabon)
TTITLE8=Leaving Your Town (Sunnyland Slim)
TTITLE9=Pigalle Love (Memphis Slim)
TTITLE10=Black Night (Charles Brown)
TTITLE11=Must Have Been the Devil (Otis Spann)
TTITLE12=Little Richard's Boogie (Little Richard)
TTITLE13=Vicksburg Blues (Little Brother Montgomery)
TTITLE14=Dog House Blues (Dr. John)
EXTD=YEAR: 2013
EXTT0=
EXTT1=
EXTT2=
EXTT3=
EXTT4=
EXTT5=
EXTT6=
EXTT7=
EXTT8=
EXTT9=
EXTT10=
EXTT11=
EXTT12=
EXTT13=
EXTT14=
PLAYORDER=
